<?xml version="1.0" encoding="UTF-8" standalone="no"?>
<!-- Created with Inkscape (http://www.inkscape.org/) -->

<svg
   width="5.3936143mm"
   height="4.8635921mm"
   viewBox="0 0 5.3936143 4.8635921"
   version="1.1"
   id="svg1"
   xmlns:inkscape="http://www.inkscape.org/namespaces/inkscape"
   xmlns:sodipodi="http://sodipodi.sourceforge.net/DTD/sodipodi-0.dtd"
   xmlns="http://www.w3.org/2000/svg"
   xmlns:svg="http://www.w3.org/2000/svg">
  <sodipodi:namedview
     id="namedview1"
     pagecolor="#ffffff"
     bordercolor="#000000"
     borderopacity="0.25"
     inkscape:showpageshadow="2"
     inkscape:pageopacity="0.0"
     inkscape:pagecheckerboard="0"
     inkscape:deskcolor="#d1d1d1"
     inkscape:document-units="mm">
    <inkscape:page
       x="0"
       y="0"
       width="5.3936143"
       height="4.8635921"
       id="page2"
       margin="0"
       bleed="0" />
  </sodipodi:namedview>
  <defs
     id="defs1" />
  <g
     inkscape:label="Layer 1"
     inkscape:groupmode="layer"
     id="layer1"
     transform="translate(-101.97087,-144.72709)">
    <g
       id="g351"
       transform="matrix(0.38831556,0,0,0.38701862,45.868801,135.23848)"
       style="stroke-width:1.24839">
      <path
         fill="#d22f27"
         d="m 148.65536,26.200088 v -0.664342 c 0,-0.36531 1.29718,-0.661459 2.89732,-0.661459 v 0 c 1.60013,0 2.89732,0.296149 2.89732,0.661459 v 0.661458"
         id="path343"
         style="stroke-width:0.330302" />
      <path
         fill="#d0cfce"
         d="m 145.46726,32.811787 v 0 c -0.36531,0 -0.66146,-0.296148 -0.66146,-0.661458 v -2.116667 c 0,-0.36531 0.29615,-0.661458 0.66146,-0.661458 v 0 c 0.36531,0 0.66146,0.296148 0.66146,0.661458 v 2.116667 c 0,0.36531 -0.29615,0.661458 -0.66146,0.661458 z"
         id="path344"
         style="fill:#e3e3e3;fill-opacity:1;stroke-width:0.330302" />
      <path
         fill="#d0cfce"
         d="m 157.37351,32.811787 v 0 c 0.36531,0 0.66146,-0.296148 0.66146,-0.661458 v -2.116667 c 0,-0.36531 -0.29615,-0.661458 -0.66146,-0.661458 v 0 c -0.36531,0 -0.66146,0.296148 -0.66146,0.661458 v 2.116667 c 0,0.36531 0.29615,0.661458 0.66146,0.661458 z"
         id="path345"
         style="fill:#e3e3e3;fill-opacity:1;stroke-width:0.330302" />
      <path
         fill="#d0cfce"
         d="m 154.44999,36.783421 h -6.05922 c -1.24412,0 -2.26205,-1.017931 -2.26205,-2.262055 v -6.059223 c 0,-1.244124 1.01793,-2.262055 2.26205,-2.262055 h 6.05922 c 1.24413,0 2.26206,1.017931 2.26206,2.262055 v 6.059223 c 0,1.244097 -1.01793,2.262055 -2.26206,2.262055 z"
         id="path346"
         style="fill:#e3e3e3;fill-opacity:1;stroke-width:0.330302" />
      <circle
         cx="153.75787"
         cy="29.610674"
         fill="#ffffff"
         id="circle346"
         r="0.74977624"
         style="stroke-width:0.330302" />
      <circle
         cx="149.12756"
         cy="29.61054"
         fill="#ffffff"
         id="circle347"
         r="0.74977624"
         style="stroke-width:0.330302" />
      <path
         fill="none"
         stroke="#000000"
         stroke-linecap="round"
         stroke-linejoin="round"
         stroke-miterlimit="2"
         stroke-width="0.660604"
         d="m 148.65536,26.173259 v -0.664342 c 0,-0.36531 1.29719,-0.661458 2.89732,-0.661458 v 0 c 1.60013,0 2.89732,0.296148 2.89732,0.661458 v 0.661458"
         id="path347" />
      <path
         fill="none"
         stroke="#000000"
         stroke-linecap="round"
         stroke-linejoin="round"
         stroke-miterlimit="2"
         stroke-width="0.660605"
         d="m 154.44999,36.753708 h -6.05922 c -1.24412,0 -2.26205,-1.017931 -2.26205,-2.262055 V 28.43243 c 0,-1.244123 1.01793,-2.262055 2.26205,-2.262055 h 6.05922 c 1.24413,0 2.26206,1.017932 2.26206,2.262055 v 6.059223 c 0,1.244124 -1.01793,2.262055 -2.26206,2.262055 z"
         id="path348" />
      <circle
         cx="153.75787"
         cy="29.61054"
         fill="none"
         stroke="#000000"
         stroke-linecap="round"
         stroke-linejoin="round"
         stroke-miterlimit="2"
         stroke-width="0.660605"
         id="circle348"
         r="0.74977624" />
      <circle
         cx="149.12756"
         cy="29.610407"
         fill="none"
         stroke="#000000"
         stroke-linecap="round"
         stroke-linejoin="round"
         stroke-miterlimit="2"
         stroke-width="0.660605"
         id="circle349"
         r="0.74977624" />
      <path
         fill="none"
         stroke="#000000"
         stroke-linecap="round"
         stroke-linejoin="round"
         stroke-miterlimit="2"
         stroke-width="0.660605"
         d="m 145.46726,32.784959 v 0 c -0.36531,0 -0.66146,-0.296149 -0.66146,-0.661459 v -2.116666 c 0,-0.365311 0.29615,-0.661459 0.66146,-0.661459 v 0 c 0.36531,0 0.66146,0.296148 0.66146,0.661459 V 32.1235 c 0,0.36531 -0.29615,0.661459 -0.66146,0.661459 z"
         id="path349" />
      <path
         fill="none"
         stroke="#000000"
         stroke-linecap="round"
         stroke-linejoin="round"
         stroke-miterlimit="2"
         stroke-width="0.660605"
         d="m 157.37351,32.784959 v 0 c 0.36531,0 0.66146,-0.296149 0.66146,-0.661459 v -2.116666 c 0,-0.365311 -0.29615,-0.661459 -0.66146,-0.661459 v 0 c -0.36531,0 -0.66146,0.296148 -0.66146,0.661459 V 32.1235 c 0,0.36531 0.29615,0.661459 0.66146,0.661459 z"
         id="path350" />
      <line
         x1="152.39197"
         x2="150.53989"
         y1="34.587727"
         y2="34.587727"
         fill="none"
         stroke="#000000"
         stroke-linecap="round"
         stroke-linejoin="round"
         stroke-miterlimit="2"
         stroke-width="0.660605"
         id="line350" />
      <path
         sodipodi:type="star"
         style="fill:#000000;fill-opacity:1;stroke-width:0.374517;stroke-linecap:round;stroke-miterlimit:0"
         id="path351"
         inkscape:flatsided="false"
         sodipodi:sides="3"
         sodipodi:cx="64.303596"
         sodipodi:cy="57.314407"
         sodipodi:r1="0.89832819"
         sodipodi:r2="1.7966564"
         sodipodi:arg1="2.5982662"
         sodipodi:arg2="3.6454638"
         inkscape:rounded="0"
         inkscape:randomized="0.001"
         d="m 63.534573,57.778337 -0.805748,-1.33165 1.558561,-0.03171 1.555501,-0.02818 -0.75354,1.361765 -0.74995,1.361455 z"
         inkscape:transform-center-x="0.27801861"
         inkscape:transform-center-y="-0.64769981"
         transform="matrix(0.19628693,-0.6092502,0.33177637,0.36044717,119.83583,50.555589)" />
    </g>
  </g>
</svg>
